<?xml version="1.0" encoding="UTF-8" standalone="no"?>
<!-- Created with Inkscape (http://www.inkscape.org/) -->

<svg
   width="88mm"
   height="105mm"
   viewBox="0 0 88 105"
   version="1.1"
   id="svg5"
   inkscape:version="1.1.2 (1:1.1+202202050950+0a00cf5339)"
   sodipodi:docname="takatakatembo.svg"
   xmlns:inkscape="http://www.inkscape.org/namespaces/inkscape"
   xmlns:sodipodi="http://sodipodi.sourceforge.net/DTD/sodipodi-0.dtd"
   xmlns="http://www.w3.org/2000/svg"
   xmlns:svg="http://www.w3.org/2000/svg">
  <sodipodi:namedview
     id="namedview7"
     pagecolor="#ffffff"
     bordercolor="#666666"
     borderopacity="1.0"
     inkscape:pageshadow="2"
     inkscape:pageopacity="0.0"
     inkscape:pagecheckerboard="0"
     inkscape:document-units="mm"
     showgrid="false"
     inkscape:zoom="1.3504346"
     inkscape:cx="163.28077"
     inkscape:cy="203.2679"
     inkscape:window-width="1341"
     inkscape:window-height="744"
     inkscape:window-x="25"
     inkscape:window-y="0"
     inkscape:window-maximized="1"
     inkscape:current-layer="layer1" />
  <defs
     id="defs2" />
  <g
     inkscape:label="Layer 1"
     inkscape:groupmode="layer"
     id="layer1">
    <path
       style="fill:#6f917c;stroke-width:0.264583"
       id="path890"
       d="m 1.437039,62.834779 c 5.4196056,3.3903 10.294178,7.625969 14.074037,12.807529 0.835207,1.14493 1.55612,2.36901 2.334183,3.55351 3.056689,5.17475 4.684908,10.89847 5.389097,16.82273 0.176292,1.50577 0.137554,3.01904 0.129757,4.530252 -0.0013,0.24372 -0.07001,0.50053 0.0089,0.73112 0.09591,0.28023 0.329385,0.49236 0.494078,0.73853 0.277535,0.19473 0.527508,0.43633 0.832607,0.58418 1.854181,0.8985 4.876657,1.11101 6.923823,1.13851 3.632287,-0.16216 7.20458,-0.87102 10.812515,-1.27148 3.53423,-0.34571 7.086912,-0.39534 10.634943,-0.42287 2.171454,0.0428 4.340064,-0.0489 6.506084,-0.18987 2.24324,-0.14781 3.40979,-1.11085 5.40368,-2.740642 0.0758,-0.062 0.28749,-1.3811 0.3257,-1.60154 0.40271,-4.08673 2.00235,-7.8136 3.86056,-11.42402 1.79387,-3.03319 3.41689,-6.46165 6.18969,-8.7662 0.38523,-0.32018 0.82658,-0.56606 1.23987,-0.84909 -0.61978,0.40099 -1.40839,0.61854 -1.85933,1.20298 -0.27543,0.35697 0.84343,-0.32189 1.27644,-0.44753 0.42513,-0.12336 0.85891,-0.21711 1.29406,-0.29834 1.15603,-0.21579 2.32413,-0.27831 3.49567,-0.33093 1.09395,-0.0472 2.20654,0.0454 3.28374,-0.18882 0,0 3.12793,-2.3975 3.12793,-2.3975 v 0 c -1.08878,0.33483 -2.22665,0.32497 -3.35843,0.34552 -4.55266,0.23273 -6.52695,0.75705 -10.69527,3.47265 -0.39622,0.29874 -0.81959,0.56453 -1.18866,0.89622 -2.64893,2.38064 -4.18994,5.76601 -5.95083,8.78063 -0.93925,1.85007 -1.54859,2.94466 -2.31492,4.87892 -0.86589,2.18554 -1.39721,4.48478 -1.83507,6.7877 -0.0707,0.29038 -0.12044,0.58667 -0.21205,0.871152 -0.0674,0.20934 -0.46982,0.68046 -0.26326,0.60496 1.0675,-0.39016 1.99151,-1.097002 3.00686,-1.607712 0.14915,-0.075 -0.25068,0.2288 -0.4027,0.29783 -0.3349,0.15208 -1.02984,0.20923 -1.35731,0.25146 -2.19616,0.17865 -4.3986,0.26476 -6.60187,0.28896 -3.566005,0.0501 -7.136494,0.11269 -10.691242,0.421192 -3.589594,0.36495 -7.129378,1.12456 -10.73989,1.27217 -2.118725,-0.0265 -4.746731,-0.12572 -6.702867,-1.02391 -0.263898,-0.12117 -0.485431,-0.31882 -0.728146,-0.47824 -0.126085,-0.184232 -0.309817,-0.340192 -0.378257,-0.552692 -0.159509,-0.49524 -0.02336,-1.04034 -0.03923,-1.56039 -0.03711,-1.21523 -0.152151,-2.4265 -0.330581,-3.62914 -0.968441,-5.89094 -2.782941,-11.57566 -5.88799,-16.71638 -0.790895,-1.18848 -1.525254,-2.41659 -2.372688,-3.56544 -3.778295,-5.12215 -8.5633294,-9.308639 -13.5295404,-13.232939 0,0 -3.2041066,2.01697 -3.2041066,2.01697 z" />
    <path
       style="fill:#6f917c;stroke-width:0.264583"
       id="path892"
       d="m 29.66385,56.187189 c -3.079652,-7.71503 -4.847079,-15.85496 -6.29925,-24.007915 -0.163473,-1.957742 -0.963287,-4.195725 -0.390012,-6.185251 0.08767,-0.304269 0.27205,-0.580083 0.476835,-0.821598 0.152588,-0.179953 0.773665,-0.539533 0.572611,-0.416068 -0.950383,0.583637 -1.881357,1.198301 -2.822038,1.79745 1.043408,0.599924 1.107808,2.432288 1.22101,3.459366 0.18274,1.657998 0.245692,3.436346 0.331512,5.090506 0.258297,5.21266 -0.06417,10.43223 0.382241,15.63547 0.07683,1.12562 0.268936,2.18874 0.906627,3.12387 0.03129,0.0548 0.06258,0.10954 0.09386,0.16431 0,0 3.426092,-1.98115 3.426092,-1.98115 v 0 c -0.03842,-0.0641 -0.07685,-0.12822 -0.115271,-0.19233 -0.62612,-0.84197 -0.912299,-1.77861 -1.029901,-2.83323 -0.718188,-5.12515 -0.629245,-10.30605 -0.637334,-15.47075 -0.02114,-1.995323 -0.0046,-3.296674 -0.125412,-5.231704 -0.09224,-1.477777 -0.10649,-3.119205 -1.352891,-4.117964 -1.282528,0.671938 -2.601069,1.279218 -3.847582,2.015815 -0.20303,0.119975 -0.350829,0.326729 -0.465412,0.53285 -1.045919,1.881473 0.234569,5.071731 0.477644,6.978343 1.75282,8.12378 3.758308,16.19445 6.021901,24.19126 0,0 3.174767,-1.73128 3.174767,-1.73128 z" />
    <path
       style="fill:#6f917c;stroke-width:0.264583"
       id="path894"
       d="m 22.173853,56.214319 c -2.107599,-4.3615 -4.492249,-8.58044 -6.602137,-12.94007 -2.508049,-5.46208 -2.63425,-11.536554 -2.113907,-17.419535 0.137165,-0.893574 0.273746,-2.076799 0.550481,-2.976673 0.06197,-0.201523 0.464288,-0.650963 0.268526,-0.572675 -4.086815,1.634373 -3.299796,1.366835 -4.7458744,4.193289 -0.804902,1.646496 -1.805643,3.218423 -2.371825,4.973531 -0.300371,0.931123 -0.335563,1.351433 -0.499933,2.317723 -0.237061,1.62894 -0.348866,3.27696 -0.367668,4.92263 0.01773,0.9175 0.02402,1.83492 0.05391,2.75212 0,0 3.427633,-1.75962 3.427633,-1.75962 v 0 c -0.02593,-0.91892 -0.0296,-1.83793 -0.01453,-2.75716 -0.0047,-1.60503 0.01791,-3.21386 0.2770054,-4.802738 0.49447,-2.566948 1.55148,-4.898031 2.859088,-7.158752 0.249687,-0.45592 0.501121,-0.910889 0.749062,-1.367761 0.191788,-0.353407 0.969602,-1.108763 0.570116,-1.063054 -4.2704464,0.48863 -3.58847,1.825252 -3.906245,4.878785 -0.115281,2.864598 -0.10927,5.69121 0.149217,8.55208 0.208074,2.30292 0.435642,4.42978 1.126768,6.64161 0.253616,0.81165 0.6565,1.56889 0.98475,2.35333 2.156939,4.33559 4.583062,8.55485 6.279584,13.10331 0,0 3.325971,-1.87037 3.325971,-1.87037 z" />
    <path
       style="fill:#6f917c;stroke-width:0.264583"
       id="path896"
       d="m 36.703275,58.781399 c -0.395563,-6.64398 -0.371679,-13.30163 -0.319715,-19.95408 0.04699,-3.37302 -0.05764,-6.732404 0.554786,-10.066424 0.433216,-2.358406 0.789734,-3.226213 1.506903,-5.432954 0,0 -3.13654,1.481971 -3.13654,1.481971 v 0 c -0.609897,2.102035 -0.990362,3.20953 -1.366621,5.429668 -0.563919,3.327429 -0.459544,6.666339 -0.381174,10.025939 0.05324,6.76119 0.06642,13.52673 -0.319712,20.27989 0,0 3.462073,-1.76401 3.462073,-1.76401 z" />
    <path
       style="fill:#6f917c;stroke-width:0.264583"
       id="path898"
       d="m 40.648564,61.651259 c -1.309473,-9.14613 -1.331746,-18.42887 -1.401765,-27.65156 0.0437,-3.809713 0.408154,-7.591299 1.364213,-11.27889 0,0 -3.300722,1.593072 -3.300722,1.593072 v 0 c -0.648955,3.64503 -0.788692,7.339354 -0.707102,11.039658 0.3155,9.36262 0.469749,18.72615 0.624964,28.09222 0,0 3.420412,-1.7945 3.420412,-1.7945 z" />
    <path
       style="fill:#6f917c;stroke-width:0.264583"
       id="path900"
       d="m 43.516102,32.857309 c -0.567888,-10.414225 -0.344281,-20.849132 0.48455,-31.2407349 0,0 -2.870449,1.442371 -2.870449,1.442371 v 0 C 40.79735,13.513431 40.823244,23.974323 40.437765,34.425799 c 0,0 3.078337,-1.56849 3.078337,-1.56849 z" />
    <path
       style="fill:#6f917c;stroke-width:0.264583"
       id="path902"
       d="m 47.812012,62.852679 c -0.549299,-7.27347 -0.194863,-14.56889 0.10223,-21.84346 0,0 -2.227226,1.12263 -2.227226,1.12263 v 0 c -0.346998,7.48727 -0.801293,14.96621 -1.262962,22.44708 0,0 3.387958,-1.72625 3.387958,-1.72625 z" />
    <path
       style="fill:#6f917c;stroke-width:0.264583"
       id="path904"
       d="m 55.558243,60.200849 c -0.16701,-1.90418 -0.0886,-3.81418 -0.0205,-5.72012 0,0 -3.189978,1.61129 -3.189978,1.61129 v 0 c -0.06745,1.95301 -0.112016,3.90716 -0.223168,5.85835 0,0 3.433636,-1.74952 3.433636,-1.74952 z" />
    <path
       style="fill:#6f917c;stroke-width:0.264583"
       id="path906"
       d="m 67.752763,69.913468 c 0.0344,-0.55862 0.0687,-1.11723 0.10303,-1.67585 0,0 -3.26757,1.62107 -3.26757,1.62107 v 0 c -0.0883,0.5825 -0.17664,1.16501 -0.26497,1.74752 0,0 3.42951,-1.69274 3.42951,-1.69274 z" />
    <path
       style="fill:#6f917c;stroke-width:0.264583"
       id="path908"
       d="m 79.710203,65.898089 c -0.0611,-1.69233 -0.0639,-0.82132 0.021,-2.61295 0,0 -3.3178,1.66837 -3.3178,1.66837 v 0 c -0.10789,1.83747 -0.0665,0.94099 -0.12738,2.689269 0,0 3.42415,-1.744689 3.42415,-1.744689 z" />
    <path
       style="fill:#6f917c;stroke-width:0.264583"
       id="path910"
       d="m 68.019363,44.192989 c -0.63009,-2.5397 -0.31007,-1.19287 -0.95019,-4.04282 0,0 -3.1092,1.66405 -3.1092,1.66405 v 0 c 0.53725,2.90876 0.33336,1.51458 0.63964,4.17835 0,0 3.41975,-1.79958 3.41975,-1.79958 z" />
    <path
       style="fill:#6f917c;stroke-width:0.264583"
       id="path912"
       d="m 63.532933,46.568129 c -1.39949,-0.19541 -2.77753,-0.52288 -4.14596,-0.87037 -0.21617,-0.0569 -0.72649,-0.20633 -0.9771,-0.22254 -0.23163,-0.015 -0.53291,0.0324 -0.73911,0.14745 -3.372064,1.88173 -2.59604,1.33066 -4.032891,2.38489 -0.652651,0.58075 -1.088433,1.33725 -1.704121,1.95333 -0.667142,0.60298 -1.115142,1.28445 -1.298451,2.16249 -0.0444,0.97776 -0.21785,1.98917 -0.03521,2.95839 0.229338,0.70279 0.739225,0.96969 1.426432,1.08229 0.947637,0.071 1.899767,0.0352 2.849181,0.0302 0.87135,-0.003 1.74267,-0.006 2.61401,-0.001 0.522,0.007 1.04403,0.003 1.56605,0.004 3.38744,-0.0867 3.61892,-1.6915 4.34122,-3.69282 0.18423,-0.75132 0.41096,-1.48197 0.70398,-2.1985 0.0549,-0.10647 0.10378,-0.21624 0.16462,-0.31942 1.41406,-2.39843 -0.77891,5.71375 -2.95605,1.40406 0.20839,0.69169 0.18014,1.45682 0.20141,2.17487 0.002,0.91499 0.0242,1.82993 0.12161,2.74009 0.0648,0.88333 0.25449,1.74326 0.44986,2.60424 0,0 3.46763,-1.87445 3.46763,-1.87445 v 0 c -0.22427,-0.83151 -0.42962,-1.66575 -0.45134,-2.53304 -0.057,-0.90342 -0.13667,-1.80537 -0.1284,-2.71177 -0.0215,-0.80145 0.0403,-1.6706 -0.23862,-2.4306 -1.11092,-1.63709 -3.68196,1.1817 -4.18158,2.59239 -0.26879,0.72771 -0.50058,1.46225 -0.70665,2.20953 -0.13442,0.36808 -0.24488,0.77472 -0.42892,1.12158 -0.0541,0.10194 -0.30009,0.33587 -0.19649,0.28503 5.70488,-2.80003 4.22235,-2.18175 3.03233,-1.69221 -0.52752,0.001 -1.05506,-0.003 -1.58253,0.007 -0.88216,0.009 -1.76436,0.0129 -2.64651,0.0229 -0.92782,0.007 -1.85638,0.0162 -2.78379,-0.0163 -0.527397,-0.0378 -0.985864,-0.0801 -1.175504,-0.64943 -0.15412,-0.92123 -0.0292,-1.89268 0.11126,-2.80804 0.249947,-0.79498 0.757174,-1.40061 1.356234,-1.97184 0.57428,-0.63852 1.04203,-1.38491 1.75224,-1.88803 1.29456,-0.86567 0.516,-0.33295 -2.688347,1.4874 -0.10369,0.0589 0.20754,-0.11763 0.313527,-0.17229 0.45196,-0.23309 0.82077,-0.13949 1.30656,0.003 1.35521,0.3148 2.71015,0.64096 4.06871,0.93478 0,0 3.25071,-2.25645 3.25071,-2.25645 z" />
    <path
       style="fill:#6f917c;stroke-width:0.264583"
       id="path914"
       d="m 65.698243,53.758479 c -6.22415,3.29672 -2.34129,1.39115 -0.72541,0.88008 0.89858,-0.12239 1.74361,-0.77607 2.6604,-0.73978 0.60597,0.38306 0.707,1.15656 0.84391,1.80387 0.12291,0.54592 0.15223,1.10318 0.17378,1.6601 0.054,0.78508 0.16262,1.5643 0.2229,2.34889 0.062,0.82021 0.0675,1.64298 0.0712,2.46504 -0.003,0.4837 5.3e-4,0.96735 -2.6e-4,1.45105 0,0 3.49714,-1.78174 3.49714,-1.78174 v 0 c -5.2e-4,-0.48401 0.004,-0.96796 -0.006,-1.45191 -0.011,-0.83074 -0.0244,-1.66235 -0.0861,-2.49113 -0.0737,-0.77844 -0.16896,-1.55543 -0.19784,-2.33729 -0.0126,-0.58069 -0.0697,-1.15652 -0.21779,-1.72025 -0.1884,-0.81723 -0.39946,-1.62211 -1.06216,-2.19463 -0.95615,-0.33269 -1.87955,0.47278 -2.82484,0.61556 -2.23374,0.62089 -4.0419,1.56876 -6.02353,2.96735 0,0 3.67465,-1.47521 3.67465,-1.47521 z" />
    <path
       style="fill:#6f917c;stroke-width:0.264583"
       id="path916"
       d="m 65.904353,50.247979 c 0.61735,-0.25902 1.22445,-0.53225 1.8522,-0.7653 0.52946,-0.2488 1.0569,-0.50447 1.60814,-0.70177 0.62211,-0.17206 1.27319,-0.18877 1.9146,-0.20578 0.84207,0.062 1.1144,0.71216 1.31359,1.43291 0.23803,1.2158 0.23234,2.46281 0.22919,3.69685 -0.008,0.98181 -0.008,1.96353 -0.0206,2.9453 -0.004,0.72475 -0.0103,1.44947 -0.0172,2.17421 -0.006,0.41352 -0.007,0.82707 -0.0122,1.2406 -2.2e-4,0.0503 -5.3e-4,0.1005 -5.3e-4,0.15075 0,0 3.53654,-1.802 3.53654,-1.802 v 0 c -2.1e-4,-0.05 -5.2e-4,-0.10007 -5.2e-4,-0.1501 -0.005,-0.40933 -0.006,-0.81867 -0.0119,-1.22799 -0.006,-0.7199 -0.0105,-1.43973 -0.009,-2.15966 -0.005,-0.97922 0.009,-1.9584 -0.007,-2.93752 -0.03,-1.26527 -0.0197,-2.54689 -0.26551,-3.79249 -0.253,-0.90197 -0.60719,-1.59801 -1.55394,-1.89126 -0.65932,0.008 -1.31901,0.0326 -1.97346,0.11889 -0.58004,0.13501 -1.11905,0.40334 -1.64981,0.66406 -0.573,0.31116 -1.24377,0.45383 -1.82488,0.7588 0,0 -3.10786,2.4515 -3.10786,2.4515 z" />
    <path
       style="fill:#6f917c;stroke-width:0.264583"
       id="path922"
       d="m 22.060987,70.778138 c 0.102494,2.01933 0.0776,4.0429 0.05554,6.06397 0,0 3.387619,-1.72608 3.387619,-1.72608 v 0 c -0.02252,-2.03998 -0.0452,-4.08224 0.05554,-6.12056 0,0 -3.498702,1.78267 -3.498702,1.78267 z" />
    <path
       style="fill:#6f917c;stroke-width:0.264583"
       id="path924"
       d="m 18.609535,70.673168 c 1.5514,-0.55242 3.160215,-0.90562 4.764783,-1.26187 1.140743,-0.23123 0.590746,-0.12228 1.649793,-0.32787 0,0 3.060004,-2.317639 3.060004,-2.317639 v 0 c -1.080494,0.22585 -0.520988,0.11191 -1.678773,0.34059 -1.573832,0.34892 -3.155638,0.670179 -4.693949,1.159299 0,0 -3.101858,2.40749 -3.101858,2.40749 z" />
    <path
       style="fill:#6f917c;stroke-width:0.264583"
       id="path926"
       d="m 31.085684,73.389058 c -0.200343,-0.9023 -0.273426,-1.82697 -0.327348,-2.74783 -0.02836,-0.57744 -0.03657,-1.15563 -0.03862,-1.73369 -0.007,-0.51966 -0.01519,-1.02557 0.107284,-1.531419 0.10556,-0.23921 0.01804,-0.1546 0.265837,-0.25037 -1.041548,0.624029 -2.093328,1.231299 -3.124645,1.872089 -0.09775,0.0607 0.21035,-0.0947 0.320038,-0.12947 0.373883,-0.11865 0.611883,-0.14593 1.002562,-0.21441 0.863287,-0.15182 1.725141,-0.29655 2.599756,-0.36006 0.844462,-0.008 1.738341,-0.18635 2.523826,0.19239 0.724379,0.56517 0.765513,1.58085 0.865317,2.42853 0.07426,0.77396 0.08358,1.55185 0.09603,2.32861 0,0 3.446637,-1.76204 3.446637,-1.76204 v 0 c -0.0088,-0.79256 -0.01416,-1.58693 -0.09923,-2.37593 -0.131831,-0.97956 -0.221184,-2.080389 -1.019958,-2.760829 -0.823063,-0.51487 -1.734804,-0.39677 -2.672159,-0.35775 -0.888823,0.0289 -1.759651,0.1362 -2.628818,0.33356 -1.851377,0.24198 -4.631452,0.76639 -5.130065,2.779129 -0.08629,0.52944 -0.06598,1.06125 -0.05886,1.5961 0.0019,0.58527 -0.0043,1.17187 0.06327,1.75434 0.09298,0.93359 0.195363,1.86676 0.329322,2.79542 0,0 3.479824,-1.85637 3.479824,-1.85637 z" />
    <path
       style="fill:#6f917c;stroke-width:0.264583"
       id="path928"
       d="m 28.573759,71.849278 c 0.842655,-0.12636 1.695841,-0.15088 2.539801,-0.26361 0.458184,-0.0914 0.910622,-0.22463 1.356305,-0.36586 0.528145,-0.15214 1.073247,-0.22857 1.611286,-0.33505 0.256516,-0.0354 0.504115,-0.0885 0.750681,-0.16519 0,0 3.093053,-2.49573 3.093053,-2.49573 v 0 c -0.190807,0.16946 -0.435346,0.25135 -0.688589,0.27581 -0.547222,0.10199 -1.091639,0.21951 -1.64066,0.31259 -0.450453,0.11648 -0.897848,0.25099 -1.335757,0.41055 -0.834744,0.15462 -1.680183,0.20003 -2.525307,0.27387 0,0 -3.160813,2.35262 -3.160813,2.35262 z" />
    <path
       style="fill:#6f917c;stroke-width:0.264583"
       id="path926-3"
       d="m 39.147371,82.140298 c -0.200343,-0.9023 -0.273426,-1.82697 -0.327348,-2.74783 -0.02836,-0.57744 -0.03657,-1.15563 -0.03862,-1.73369 -0.007,-0.51966 -0.01519,-1.02557 0.107284,-1.53142 0.10556,-0.23921 0.01804,-0.1546 0.265837,-0.25037 -1.041548,0.62403 -2.093328,1.2313 -3.124645,1.87209 -0.09775,0.0607 0.21035,-0.0947 0.320038,-0.12947 0.373883,-0.11865 0.611883,-0.14593 1.002562,-0.21441 0.863287,-0.15182 1.725141,-0.29655 2.599756,-0.36006 0.844462,-0.008 1.738341,-0.18635 2.523826,0.19239 0.724379,0.56517 0.765513,1.58085 0.865317,2.42853 0.07426,0.77396 0.08358,1.55185 0.09603,2.32861 0,0 3.446637,-1.76204 3.446637,-1.76204 v 0 c -0.0088,-0.79256 -0.01416,-1.58693 -0.09923,-2.37593 -0.131831,-0.97956 -0.221184,-2.08039 -1.019958,-2.76083 -0.823063,-0.51487 -1.734804,-0.39677 -2.672159,-0.35775 -0.888823,0.0289 -1.759651,0.1362 -2.628818,0.33356 -1.851377,0.24198 -4.631452,0.76639 -5.130065,2.77913 -0.08629,0.52944 -0.06598,1.06125 -0.05886,1.5961 0.0019,0.58527 -0.0043,1.17187 0.06327,1.75434 0.09298,0.93359 0.195363,1.86676 0.329322,2.79542 0,0 3.479824,-1.85637 3.479824,-1.85637 z" />
    <path
       style="fill:#6f917c;stroke-width:0.264583"
       id="path928-6"
       d="m 36.635446,80.600518 c 0.842655,-0.12636 1.695841,-0.15088 2.539801,-0.26361 0.458184,-0.0914 0.910622,-0.22463 1.356305,-0.36586 0.528145,-0.15214 1.073247,-0.22857 1.611286,-0.33505 0.256516,-0.0354 0.504115,-0.0885 0.750681,-0.16519 0,0 3.093053,-2.49573 3.093053,-2.49573 v 0 c -0.190807,0.16946 -0.435346,0.25135 -0.688589,0.27581 -0.547222,0.10199 -1.091639,0.21951 -1.64066,0.31259 -0.450453,0.11648 -0.897848,0.25099 -1.335757,0.41055 -0.834744,0.15462 -1.680183,0.20003 -2.525307,0.27387 0,0 -3.160813,2.35262 -3.160813,2.35262 z" />
    <path
       style="fill:#6f917c;stroke-width:0.264583"
       id="path930"
       d="m 26.693497,77.211668 c 0.03306,1.19454 0.04394,2.39011 0.03952,3.58515 0.01003,0.90473 -0.01667,1.80702 -0.175837,2.6986 -0.0687,0.61033 -0.208127,1.20854 -0.413991,1.78856 -0.14692,0.28355 -0.06292,0.158 -0.244033,0.38187 0,0 3.618471,-1.59901 3.618471,-1.59901 v 0 c 0.13454,-0.28854 0.07108,-0.13523 0.186721,-0.46143 0.171437,-0.60648 0.326168,-1.21638 0.387639,-1.8455 0.109146,-0.90155 0.100018,-1.80694 0.07703,-2.71382 -0.0045,-1.20846 0.0069,-2.41743 0.03952,-3.62542 0,0 -3.515027,1.791 -3.515027,1.791 z" />
    <path
       style="fill:#6f917c;stroke-width:0.264583"
       id="path932"
       d="m 27.466345,81.431088 c 0.70717,0.95322 1.152552,2.07866 1.748414,3.10719 0.232672,0.43117 0.52582,0.82327 0.815565,1.21644 0,0 3.367429,-2.00595 3.367429,-2.00595 v 0 c -0.299873,-0.36652 -0.600607,-0.7336 -0.837454,-1.14595 -0.628602,-1.04885 -1.07963,-2.18654 -1.711592,-3.22952 0,0 -3.382362,2.05779 -3.382362,2.05779 z" />
    <path
       style="fill:#6f917c;stroke-width:0.264583"
       id="path938"
       d="m 33.156281,76.645398 c -0.672314,0.72567 -1.425514,1.39363 -2.229707,1.97121 -1.271871,0.78018 -1.116825,0.68161 2.738789,-1.58608 0.08761,-0.0515 -0.17826,0.0979 -0.269658,0.14231 -0.30226,0.147 -0.616281,0.26996 -0.920829,0.41242 -1.639586,0.83242 -3.802216,1.32333 -4.512929,3.11106 -0.10196,0.25974 -0.141753,0.53098 -0.162579,0.80692 0,0 3.551619,-1.75603 3.551619,-1.75603 v 0 c 0.04118,-0.23651 0.0964,-0.46895 0.210253,-0.68299 0.08268,-0.13671 0.142288,-0.24989 0.251331,-0.36938 0.05333,-0.0584 0.244147,-0.19869 0.174839,-0.16053 -5.680011,3.12762 -3.817093,2.12358 -2.583929,1.50049 1.757408,-0.87311 3.640254,-1.53639 5.15221,-2.86399 0.792663,-0.63659 1.583386,-1.30207 2.216328,-2.10179 0,0 -3.615738,1.57638 -3.615738,1.57638 z" />
    <path
       style="fill:#6f917c;stroke-width:0.264583"
       id="path922-7"
       d="m 45.709317,69.031898 c 0.102494,2.01933 0.0776,4.0429 0.05554,6.06397 0,0 3.387619,-1.72608 3.387619,-1.72608 v 0 c -0.02252,-2.03998 -0.0452,-4.08224 0.05554,-6.120559 0,0 -3.498702,1.782669 -3.498702,1.782669 z" />
    <path
       style="fill:#6f917c;stroke-width:0.264583"
       id="path924-5"
       d="m 42.257865,68.926928 c 1.5514,-0.55242 3.160215,-0.90562 4.764783,-1.26187 1.140743,-0.231229 0.590746,-0.122279 1.649793,-0.327869 0,0 3.060004,-2.31764 3.060004,-2.31764 v 0 c -1.080494,0.22585 -0.520988,0.11191 -1.678773,0.34059 -1.573832,0.34892 -3.155638,0.67018 -4.693949,1.1593 0,0 -3.101858,2.407489 -3.101858,2.407489 z" />
    <path
       style="fill:#6f917c;stroke-width:0.264583"
       id="path926-35"
       d="m 54.734014,71.113648 c -0.200343,-0.9023 -0.273426,-1.82697 -0.327348,-2.74783 -0.02836,-0.57744 -0.03657,-1.155629 -0.03862,-1.733689 -0.007,-0.51966 -0.01519,-1.02557 0.107284,-1.53142 0.10556,-0.23921 0.01804,-0.1546 0.265837,-0.25037 -1.041548,0.62403 -2.093328,1.2313 -3.124645,1.87209 -0.09775,0.0607 0.21035,-0.0947 0.320038,-0.12947 0.373883,-0.11865 0.611883,-0.14593 1.002562,-0.21441 0.863287,-0.15182 1.725141,-0.29655 2.599751,-0.36006 0.84447,-0.008 1.73835,-0.18635 2.52383,0.19239 0.72438,0.56517 0.76551,1.580849 0.86532,2.428529 0.0743,0.77396 0.0836,1.55185 0.096,2.32861 0,0 3.44663,-1.76204 3.44663,-1.76204 v 0 c -0.009,-0.79256 -0.0142,-1.586929 -0.0992,-2.375929 -0.13183,-0.97956 -0.22118,-2.08039 -1.01995,-2.76083 -0.82307,-0.51487 -1.73481,-0.39677 -2.67216,-0.35775 -0.88883,0.0289 -1.75965,0.1362 -2.62882,0.33356 -1.851377,0.24198 -4.631452,0.76639 -5.130065,2.77913 -0.08629,0.52944 -0.06598,1.061249 -0.05886,1.596099 0.0019,0.58527 -0.0043,1.17187 0.06327,1.75434 0.09298,0.93359 0.195363,1.86676 0.329322,2.79542 0,0 3.479824,-1.85637 3.479824,-1.85637 z" />
    <path
       style="fill:#6f917c;stroke-width:0.264583"
       id="path928-62"
       d="m 52.222089,70.103038 c 0.842655,-0.12636 1.695841,-0.15088 2.539801,-0.26361 0.458183,-0.0914 0.910623,-0.22463 1.356303,-0.36586 0.52815,-0.15214 1.07325,-0.22857 1.61129,-0.33505 0.25651,-0.0354 0.50411,-0.0885 0.75068,-0.16519 0,0 3.09305,-2.495729 3.09305,-2.495729 v 0 c -0.19081,0.16946 -0.43534,0.25135 -0.68859,0.27581 -0.54722,0.10199 -1.09164,0.21951 -1.64066,0.31259 -0.45045,0.11648 -0.89784,0.25099 -1.33575,0.41055 -0.83475,0.15462 -1.68019,0.200029 -2.52531,0.273869 0,0 -3.160814,2.35262 -3.160814,2.35262 z" />
    <path
       style="fill:#6f917c;stroke-width:0.264583"
       id="path926-3-9"
       d="m 62.795703,80.394058 c -0.20035,-0.9023 -0.27343,-1.82697 -0.32735,-2.74783 -0.0284,-0.57744 -0.0366,-1.15563 -0.0386,-1.73369 -0.007,-0.51966 -0.0152,-1.02557 0.10728,-1.53142 0.10556,-0.23921 0.018,-0.1546 0.26584,-0.25037 -1.04155,0.62403 -2.09333,1.2313 -3.12464,1.87209 -0.0977,0.0607 0.21035,-0.0947 0.32003,-0.12947 0.37389,-0.11865 0.61189,-0.14593 1.00257,-0.21441 0.86328,-0.15182 1.72514,-0.29655 2.59975,-0.36006 0.84446,-0.008 1.73834,-0.18635 2.52383,0.19239 0.72438,0.56517 0.76551,1.58085 0.86532,2.42853 0.0742,0.77396 0.0836,1.55185 0.096,2.32861 0,0 3.44663,-1.76204 3.44663,-1.76204 v 0 c -0.009,-0.79256 -0.0142,-1.58693 -0.0992,-2.37593 -0.13183,-0.97956 -0.22118,-2.08039 -1.01996,-2.76083 -0.82306,-0.51487 -1.7348,-0.39677 -2.67215,-0.35775 -0.88883,0.0289 -1.75966,0.1362 -2.62882,0.33356 -1.85138,0.24198 -4.63145,0.76639 -5.13007,2.77913 -0.0863,0.52944 -0.066,1.06125 -0.0589,1.5961 0.002,0.58527 -0.004,1.17187 0.0633,1.75434 0.093,0.93359 0.19537,1.86676 0.32932,2.79542 0,0 3.47983,-1.85637 3.47983,-1.85637 z" />
    <path
       style="fill:#6f917c;stroke-width:0.264583"
       id="path928-6-1"
       d="m 60.283773,78.854278 c 0.84266,-0.12636 1.69584,-0.15088 2.5398,-0.26361 0.45819,-0.0914 0.91063,-0.22463 1.35631,-0.36586 0.52814,-0.15214 1.07325,-0.22857 1.61128,-0.33505 0.25652,-0.0354 0.50412,-0.0885 0.75069,-0.16519 0,0 3.09305,-2.49573 3.09305,-2.49573 v 0 c -0.19081,0.16946 -0.43535,0.25135 -0.68859,0.27581 -0.54722,0.10199 -1.09164,0.21951 -1.64066,0.31259 -0.45045,0.11648 -0.89785,0.25099 -1.33576,0.41055 -0.83474,0.15462 -1.68018,0.20003 -2.5253,0.27387 0,0 -3.16082,2.35262 -3.16082,2.35262 z" />
    <path
       style="fill:#6f917c;stroke-width:0.264583"
       id="path930-2"
       d="m 50.341827,75.465428 c 0.03306,1.19454 0.04394,2.39011 0.03952,3.58515 0.01003,0.90473 -0.01667,1.80702 -0.175837,2.6986 -0.0687,0.61033 -0.208127,1.20854 -0.413991,1.78856 -0.14692,0.28355 -0.06292,0.158 -0.244033,0.38187 0,0 3.618471,-1.59901 3.618471,-1.59901 v 0 c 0.13454,-0.28854 0.07108,-0.13523 0.186721,-0.46143 0.171437,-0.60648 0.326168,-1.21638 0.387639,-1.8455 0.109146,-0.90155 0.100018,-1.80694 0.07703,-2.71382 -0.0045,-1.20846 0.0069,-2.41743 0.03952,-3.62542 0,0 -3.515027,1.791 -3.515027,1.791 z" />
    <path
       style="fill:#6f917c;stroke-width:0.264583"
       id="path932-7"
       d="m 51.114675,79.684848 c 0.70717,0.95322 1.152552,2.07866 1.748414,3.10719 0.232672,0.43117 0.52582,0.82327 0.815565,1.21644 0,0 3.367429,-2.00595 3.367429,-2.00595 v 0 c -0.29987,-0.36652 -0.60061,-0.7336 -0.83745,-1.14595 -0.62861,-1.04885 -1.07963,-2.18654 -1.711596,-3.22952 0,0 -3.382362,2.05779 -3.382362,2.05779 z" />
    <path
       style="fill:#6f917c;stroke-width:0.264583"
       id="path938-0"
       d="m 56.804613,74.899158 c -0.67232,0.72567 -1.42552,1.39363 -2.229709,1.97121 -1.271871,0.78018 -1.116825,0.68161 2.738789,-1.58608 0.0876,-0.0515 -0.17826,0.0979 -0.26966,0.14231 -0.30226,0.147 -0.61628,0.26996 -0.92083,0.41242 -1.639583,0.83242 -3.802213,1.32333 -4.512926,3.11106 -0.10196,0.25974 -0.141753,0.53098 -0.162579,0.80692 0,0 3.551615,-1.75603 3.551615,-1.75603 v 0 c 0.0412,-0.23651 0.0964,-0.46895 0.21026,-0.68299 0.0827,-0.13671 0.14228,-0.24989 0.25133,-0.36938 0.0533,-0.0584 0.24414,-0.19869 0.17484,-0.16053 -5.680014,3.12762 -3.817096,2.12358 -2.583932,1.50049 1.757408,-0.87311 3.640252,-1.53639 5.152212,-2.86399 0.79266,-0.63659 1.58338,-1.30207 2.21633,-2.10179 0,0 -3.61574,1.57638 -3.61574,1.57638 z" />
    <path
       style="fill:#6f917c;stroke-width:0.264583"
       id="path3818"
       d="m 25.815755,89.402138 c 0.493636,0.21921 0.999009,0.40634 1.521704,0.54225 0.724725,0.17597 1.480036,0.13225 2.219827,0.14421 0.85616,-8e-4 1.682965,0.22415 2.519844,0.36742 0.397688,0.0576 0.797748,0.0959 1.196422,0.14547 3.608081,-1.68673 2.888726,-0.99845 3.773678,-2.6593 0,0 -3.537011,1.58076 -3.537011,1.58076 v 0 c -0.768059,1.31132 -2.630215,1.75336 2.867854,-1.34607 -0.02379,0.031 -0.0371,0.0743 -0.07134,0.0932 -0.201954,0.11141 -0.864298,-0.0427 -1.096348,-0.0234 -0.880094,-0.1004 -1.753823,-0.2545 -2.637423,-0.32258 -0.689072,-0.0704 -1.383577,-0.0661 -2.06898,-0.17165 -0.477653,-0.0969 -0.95975,-0.23488 -1.380371,-0.48687 0,0 -3.307853,2.13665 -3.307853,2.13665 z" />
    <path
       style="fill:#6f917c;stroke-width:0.264583"
       id="path3820"
       d="m 28.852386,90.719048 c 0.07631,1.00722 0.08396,2.01988 0.110855,3.02981 0.01283,1.14555 -5.29e-4,2.28984 -0.06307,3.43373 0,0 3.314274,-1.68845 3.314274,-1.68845 v 0 c -0.06348,-1.12399 -0.0713,-2.24848 -0.05059,-3.3741 0.03749,-1.05571 0.05344,-2.11854 0.193016,-3.16637 0,0 -3.504483,1.76538 -3.504483,1.76538 z" />
    <path
       style="fill:#6f917c;stroke-width:0.264583"
       id="path3822"
       d="m 32.883818,93.654948 c 0.142158,0.49839 0.614844,0.8504 1.015077,1.14727 0.383701,0.26173 0.818039,0.36146 1.274503,0.37712 1.909683,-0.22961 3.458925,-1.48576 5.08649,-2.41523 0.324999,-0.54965 0.464934,-1.19365 0.555316,-1.82034 0.09588,-0.56057 0.08099,-0.86018 -0.448003,-1.1558 -0.379982,-0.15836 -0.798989,-0.14273 -1.202915,-0.14234 -0.468127,-0.0421 -0.894522,0.10461 -1.334029,0.23703 -0.418846,0.12737 -0.855896,0.1602 -1.290328,0.18597 -1.508017,0.12983 -3.662588,0.90055 -4.09338,2.27513 -0.158657,0.39787 -0.213571,0.83676 -0.269237,1.26251 -0.0323,0.47522 -0.06088,0.95195 -0.07581,1.42838 -0.0024,0.38093 -0.02143,0.76034 0.07669,1.13111 0.321297,0.46262 0.935638,0.67893 1.412033,0.96891 0.507524,0.35245 1.069909,0.50474 1.67286,0.59138 0.484442,0.0652 0.969172,0.1075 1.453058,0.0258 1.800801,-0.87627 3.091071,-1.42535 4.290687,-2.72837 0.204134,-0.23117 0.485116,-0.37946 0.651676,-0.64489 0.07879,-0.16206 0.06603,-0.33156 0.05531,-0.50507 -0.0019,-0.0838 -0.0042,-0.16753 -0.0056,-0.25132 0,0 -3.521861,1.7989 -3.521861,1.7989 v 0 c 2.36e-4,0.0793 2.46e-4,0.15864 -0.0044,0.23786 -0.01701,0.11579 -0.05959,0.196 -0.156935,0.26595 -0.216231,0.186 -0.421351,0.38393 -0.618275,0.59019 -1.118847,1.03208 -2.979952,2.14419 2.383599,-1.12075 -0.123489,0.0461 -0.288565,0.11614 -0.421722,0.13274 -0.319984,0.0399 -0.655275,-0.029 -0.975712,-0.0192 -0.562438,-0.0515 -1.101526,-0.14201 -1.583984,-0.45904 -0.403733,-0.23144 -0.836485,-0.44787 -1.189,-0.75177 -0.09117,-0.33467 -0.02543,-0.68615 -0.04112,-1.02877 -0.0032,-0.45655 -0.01114,-0.91392 0.06696,-1.36599 0.06476,-0.39338 0.149297,-0.80879 0.411589,-1.12163 1.227899,-0.58861 0.223602,-0.11013 -3.180614,1.84512 -0.03575,0.0205 0.06871,-0.0456 0.102962,-0.0685 0.133382,-0.0893 0.26134,-0.16437 0.426384,-0.17946 0.45116,-0.0339 0.904891,-0.0494 1.350502,-0.13383 0.221314,-0.055 0.449443,-0.11079 0.661548,-0.19629 0.06182,-0.0249 0.115234,-0.0706 0.1796,-0.0879 0.0076,-0.002 0.423045,-0.0338 0.428614,-0.0342 0.362868,6e-5 0.728536,-0.0107 1.089179,0.0346 0.445441,0.0967 0.261556,0.25544 0.245964,0.67794 -0.09087,0.56247 -0.204179,1.19543 -0.720093,1.5231 5.409076,-3.06746 3.388728,-1.70206 1.662333,-1.25885 -0.393301,0.0213 -0.789033,-0.0106 -1.148864,-0.18528 -0.3074,-0.18052 -0.778314,-0.45007 -0.741682,-0.86051 0,0 -3.529312,1.79827 -3.529312,1.79827 z" />
    <path
       style="fill:#6f917c;stroke-width:0.264583"
       id="path3824"
       d="m 44.053566,95.051688 c -0.113091,-0.52659 -0.14819,-1.06383 -0.173183,-1.6005 -0.04987,-0.74773 -0.141573,-1.49484 -0.221644,-2.2412 -0.04817,-0.45476 -0.07558,-0.91091 -0.08897,-1.36788 -0.0092,-0.35219 -0.02003,-0.70474 -0.0105,-1.05705 0.01505,-0.0343 0.0089,-0.0937 0.04518,-0.10279 0.04321,-0.0108 0.156614,0.0386 0.118546,0.0617 -1.094089,0.66514 -2.270511,1.19313 -3.3402,1.89683 -0.07709,0.0507 0.16111,0.0909 0.235378,0.14571 0.216921,0.15995 0.401,0.34446 0.596821,0.52853 0.404892,0.37067 0.778457,0.7716 1.120029,1.20091 0.173408,0.23836 0.421566,0.40118 0.663027,0.56286 0.226692,0.0789 0.349914,0.33277 0.561086,0.43018 1.278498,0.5898 2.465681,-1.3641 3.651832,-2.12269 0.176501,-0.54209 0.395266,-1.0669 0.629412,-1.58579 0.210741,-0.33352 0.414094,-0.66914 0.619017,-1.00742 0.18144,-0.30244 0.428492,-0.54875 0.611079,-0.84855 0.128939,-0.15764 0.158197,-0.38612 0.306096,-0.53049 0.01823,-0.0178 0.08742,-0.0523 0.06546,-0.0394 -1.122346,0.65903 -2.244415,1.31854 -3.366624,1.97781 -0.196583,-0.40012 -0.09226,0.0759 -0.08701,0.18806 0.0075,0.15929 0.0063,0.24049 0.0072,0.40023 0.0045,0.41476 0.006,0.82921 -0.0068,1.24381 -0.01844,0.31981 -0.0177,0.63281 0.03478,0.94902 0.171299,0.53224 0.342686,1.06529 0.474012,1.60916 0.115384,0.47125 0.167867,0.95082 0.182954,1.43476 0.0092,0.39648 0.01048,0.79323 0.0084,1.18983 -1.17e-4,0.0649 -2.36e-4,0.12988 -2.65e-4,0.19482 0,0 3.469436,-1.76716 3.469436,-1.76716 v 0 c 6.4e-5,-0.0651 1.25e-4,-0.13028 1.85e-4,-0.19542 -0.0024,-0.40204 -2.64e-4,-0.80421 -0.03456,-1.20527 -0.05083,-0.50032 -0.09038,-1.00807 -0.24126,-1.49041 -0.157068,-0.52388 -0.335037,-1.04515 -0.398503,-1.59094 -0.02692,-0.29807 2.65e-4,-0.59942 -0.01905,-0.89849 -0.01119,-0.41442 -0.0058,-0.8286 -0.0058,-1.24312 -0.0068,-0.42783 0.06382,-0.87699 -0.218758,-1.2324 -5.12618,2.97437 -2.587161,0.82613 -3.742478,2.55813 -0.221154,0.27223 -0.417602,0.55959 -0.589915,0.86576 -0.213855,0.34363 -0.445045,0.68332 -0.591074,1.06239 -0.192981,0.5165 -0.354573,1.05559 -0.663408,1.51764 1.062064,-0.61111 2.096326,-1.2733 3.186187,-1.83333 0.06044,-0.031 0.01402,0.14153 -0.01416,0.20337 -0.05538,0.12162 -0.449413,-0.29676 -0.54189,-0.32601 -0.21059,-0.15664 -0.410567,-0.32372 -0.600871,-0.50438 -0.410449,-0.38843 -0.838822,-0.75699 -1.250943,-1.14342 -0.144544,-0.14727 -0.413202,-0.41698 -0.553238,-0.57476 -0.07318,-0.0824 -0.108098,-0.29481 -0.210831,-0.25481 -4.084613,1.59003 -3.657253,0.44521 -3.587453,2.04779 0.0093,0.36064 -0.0064,0.7213 0.01336,1.0818 0.03922,0.44898 0.133382,0.89034 0.2085,1.33426 0.107011,0.74232 0.145754,1.48673 0.1749,2.23552 0.03502,0.55387 0.09565,1.10931 0.06732,1.66458 0,0 3.50932,-1.82183 3.50932,-1.82183 z" />
    <path
       style="fill:#6f917c;stroke-width:0.264583"
       id="path3826"
       d="m 49.751977,88.443018 c 0.06,0.51488 0.03712,1.03463 0.01061,1.55101 -0.02209,0.45642 -0.09323,0.9081 -0.123875,1.36453 -0.02109,0.39732 -0.03797,0.79499 -0.0236,1.19276 0.01553,0.56789 0.02893,1.13517 0.01561,1.70316 -0.01614,0.51149 0.0013,1.02282 -0.0073,1.53428 -0.0091,0.39928 -0.01082,0.79862 -0.02096,1.19785 -0.01172,0.3633 0.264229,0.60819 0.560094,0.76548 0.477687,0.12355 0.989304,0.11161 1.479495,0.0794 1.645647,-0.22338 3.512302,-1.21939 4.465772,-2.42273 0.045,-0.0899 0.0842,-0.18286 0.13492,-0.26967 0.11352,-0.19446 0.25123,-0.37398 0.36718,-0.567 0.16189,-0.26952 0.29751,-0.54363 0.47958,-0.80029 0.23399,-0.33636 0.36112,-0.71949 0.38272,-1.12547 -0.0286,-0.55741 -0.47828,-0.95362 -0.88771,-1.27677 -0.3596,-0.27644 -0.74251,-0.50238 -1.17862,-0.62848 -0.34723,-0.0719 -0.70196,-0.0693 -1.054634,-0.0705 -0.393406,0.0115 -0.787069,0.005 -1.180457,0.0156 -0.134019,0.003 -0.265996,0.0109 -0.395663,0.0452 0,0 -3.129087,2.42927 -3.129087,2.42927 v 0 c 0.12885,-0.0504 0.247772,-0.12499 0.38635,-0.14816 0.384046,-0.0632 0.771234,-0.0477 1.15946,-0.0445 0.334584,-0.004 0.669761,-0.0105 1.003983,0.008 0.419171,0.0472 0.795496,0.1987 1.14545,0.4378 0.309745,0.23362 0.670523,0.53547 0.629637,0.95923 -0.07636,0.34387 -0.21289,0.66112 -0.409446,0.955 -0.297857,0.55071 -0.602869,1.11052 -1.041752,1.56359 -1.136822,0.85117 -0.181888,0.12566 2.988959,-1.68086 0.0549,-0.0313 -0.10577,0.0695 -0.16141,0.0995 -0.18679,0.10056 -0.38718,0.18144 -0.596667,0.21782 -0.441833,0.0537 -0.880057,0.0819 -1.324496,0.0298 -0.217019,-0.0385 -0.349671,-0.10678 -0.338791,-0.34729 -0.01021,-0.39212 -0.01175,-0.78435 -0.02103,-1.17651 -0.0087,-0.50889 0.0086,-1.01766 -0.0082,-1.52656 -0.01439,-0.5725 -0.0013,-1.14444 0.0163,-1.71679 0.01791,-0.39064 0.01045,-0.78198 0.03916,-1.17221 0.03392,-0.45371 0.08926,-0.90616 0.08622,-1.36196 0.0077,-0.53362 0.01487,-1.06892 0.05907,-1.60077 0,0 -3.506864,1.78684 -3.506864,1.78684 z" />
    <path
       style="fill:#6f917c;stroke-width:0.264583"
       id="path3828"
       d="m 61.984923,90.310508 c -0.0524,0.0277 -0.21607,0.1151 -0.26271,0.13518 -1.84527,0.79463 1.34239,-0.87396 -3.96361,2.19388 -2.49554,1.42237 10.38144,-5.97771 -0.62667,0.3386 -0.0371,0.23482 -0.0499,0.4665 -0.11511,0.69647 -0.10685,0.27745 -0.11378,0.57499 -0.2012,0.85703 -0.0671,0.37497 -0.10179,0.75469 -0.10656,1.13549 -0.0163,0.38565 -0.0104,0.77161 -0.0211,1.15733 0.006,0.35363 0.17952,0.67767 0.36696,0.96905 0.19844,0.23103 0.45899,0.35029 0.7534,0.39877 0.29254,0.0246 0.58667,0.0175 0.88002,0.0214 0.29525,-0.006 0.59067,-0.0108 0.88593,-0.004 1.56809,-0.0701 3.29474,-0.98204 3.97131,-2.40518 0.16631,-0.47551 0.23511,-0.978 0.40743,-1.4508 0.16871,-0.41379 0.36916,-0.81589 0.48258,-1.24917 0.10357,-0.30289 0.30264,-0.56299 0.32268,-0.88777 0.009,-0.29633 0.0245,-0.59249 0.0307,-0.88891 -0.0119,-0.27574 0.002,-0.55328 -0.0201,-0.8283 -0.0844,-0.38236 -0.29636,-0.70983 -0.54071,-1.00881 -0.19028,-0.22136 -0.42248,-0.35809 -0.69864,-0.4397 -0.23115,-0.0494 -0.46784,-0.0661 -0.70357,-0.0749 -0.2589,0.001 -0.51795,0.0138 -0.77652,-0.003 -1.54349,0.0523 0.63212,-0.60887 -3.65635,1.9864 -0.0379,0.0229 -0.0173,0.0874 -0.0336,0.12865 -0.0283,0.0717 -0.0685,0.11128 -0.11627,0.16852 -0.078,0.18548 -0.15768,0.36719 -0.2135,0.5634 0.004,0.17958 -0.0962,0.25249 -0.19232,0.37977 -0.0484,0.17262 -0.17658,0.28836 -0.23385,0.4581 -0.0242,0.1956 -0.046,0.39677 -0.12102,0.58151 -0.091,0.2217 -0.0991,0.46154 -0.22383,0.66989 0,0 3.56723,-1.64912 3.56723,-1.64912 v 0 c 0.0607,-0.24007 0.12558,-0.47692 0.2173,-0.70729 0.0384,-0.1792 0.0656,-0.37846 0.16694,-0.53244 0.0944,-0.13241 0.15025,-0.28194 0.24922,-0.41029 0.0831,-0.14795 0.0922,-0.31376 0.15181,-0.46978 0.0654,-0.1596 0.13689,-0.31935 0.25702,-0.44464 0.0233,-0.0342 0.0846,-0.13196 0.12188,-0.15503 0.0263,-0.0163 0.11677,-0.0386 0.09,-0.0231 -4.52544,2.62106 -4.3528,2.47748 -3.1902,1.80684 0.23596,-0.0772 0.49502,-0.0184 0.74005,-0.031 0.22253,-0.004 0.4453,-0.009 0.66756,0.007 0.21702,0.0215 0.41516,0.0576 0.58009,0.21462 0.20943,0.21494 0.39523,0.4712 0.40607,0.78098 0.002,0.27232 0.005,0.54438 -0.003,0.81659 0.002,0.27291 0.0118,0.5498 -0.0583,0.81621 -0.11171,0.27101 -0.21008,0.54735 -0.29535,0.82784 -0.15983,0.41069 -0.32384,0.8203 -0.4614,1.23908 -0.13431,0.47045 -0.21852,0.97531 -0.50503,1.38295 -0.0715,0.0815 -0.10585,0.13292 -0.19591,0.1916 -0.0339,0.0221 -0.14371,0.0746 -0.10854,0.0546 6.90728,-3.94139 4.19212,-2.22861 3.07239,-1.75234 -0.28124,0.0644 -0.57603,0.0165 -0.86272,0.0286 -0.28496,0.008 -0.56994,0.0111 -0.85501,0.008 -0.19737,5.3e-4 -0.4001,-2.2e-4 -0.57321,-0.10898 -0.17106,-0.21592 -0.27946,-0.47161 -0.26666,-0.75022 -0.0104,-0.37663 -0.004,-0.75387 0.01,-1.13033 0.0314,-0.36393 0.0609,-0.7309 0.17217,-1.08104 0.0589,-0.28676 0.10957,-0.57437 0.20283,-0.85316 0.0384,-0.15491 0.0544,-0.46322 0.27049,-0.43544 -6.935516,3.97027 -1.59235,0.95131 0.58051,-0.32933 -1.07236,0.61473 -2.14473,1.22946 -3.21709,1.84419 0.0802,-0.0464 0.21122,-0.12573 0.29698,-0.16187 0.13411,-0.0565 0.27919,-0.0618 0.41012,-0.12521 0,0 3.0887,-2.46749 3.0887,-2.46749 z" />
  </g>
</svg>
