<?xml version="1.0" encoding="UTF-8" standalone="no"?>
<!-- Generator: Adobe Illustrator 19.0.0, SVG Export Plug-In . SVG Version: 6.00 Build 0)  -->

<svg
   version="1.1"
   id="Capa_1"
   x="0px"
   y="0px"
   viewBox="0 0 280 440"
   xml:space="preserve"
   sodipodi:docname="gcm_logo_april30_2022.svg"
   inkscape:version="1.1.2 (1:1.1+202202050950+0a00cf5339)"
   inkscape:export-filename="/home/ecocommunity/Downloads/ground-cover-mapper4aq.png"
   inkscape:export-xdpi="96"
   inkscape:export-ydpi="96"
   width="280"
   height="440"
   xmlns:inkscape="http://www.inkscape.org/namespaces/inkscape"
   xmlns:sodipodi="http://sodipodi.sourceforge.net/DTD/sodipodi-0.dtd"
   xmlns:xlink="http://www.w3.org/1999/xlink"
   xmlns="http://www.w3.org/2000/svg"
   xmlns:svg="http://www.w3.org/2000/svg"><defs
   id="defs129"><linearGradient
     id="linearGradient26865"
     inkscape:swatch="solid"><stop
       style="stop-color:#ffffff;stop-opacity:1;"
       offset="0"
       id="stop26863" /></linearGradient><linearGradient
     inkscape:collect="always"
     xlink:href="#linearGradient26865"
     id="linearGradient15240"
     gradientUnits="userSpaceOnUse"
     gradientTransform="matrix(17.174566,0,0,17.174568,11.464691,96.776041)"
     x1="22.377359"
     y1="51.68874"
     x2="24.683247"
     y2="51.68874" /></defs><sodipodi:namedview
   id="namedview127"
   pagecolor="#ffffff"
   bordercolor="#666666"
   borderopacity="1.0"
   inkscape:pageshadow="2"
   inkscape:pageopacity="0.0"
   inkscape:pagecheckerboard="0"
   showgrid="false"
   inkscape:zoom="0.72880595"
   inkscape:cx="318.3289"
   inkscape:cy="141.32706"
   inkscape:window-width="1332"
   inkscape:window-height="639"
   inkscape:window-x="291"
   inkscape:window-y="57"
   inkscape:window-maximized="0"
   inkscape:current-layer="Capa_1"
   width="350px"
   showguides="false" />

<g
   id="g96">
</g>
<g
   id="g98">
</g>
<g
   id="g100">
</g>
<g
   id="g102">
</g>
<g
   id="g104">
</g>
<g
   id="g106">
</g>
<g
   id="g108">
</g>
<g
   id="g110">
</g>
<g
   id="g112">
</g>
<g
   id="g114">
</g>
<g
   id="g116">
</g>
<g
   id="g118">
</g>
<g
   id="g120">
</g>
<g
   id="g122">
</g>
<g
   id="g124">
</g>
<path
   style="opacity:0;fill:#ffffff;stroke-width:17.1747"
   id="path1082"
   d="m 127.93082,420.47304 c 9.25389,9.67296 18.79994,19.11938 28.20796,28.67281 6.21599,6.60416 12.49671,13.17158 19.06004,19.50334 5.56872,4.63902 10.37756,9.87635 15.00016,15.26434 3.25646,4.20195 6.52734,8.38278 9.6941,12.63833 1.31846,1.8484 3.19304,3.26573 4.44626,5.14234 1.23234,2.10704 1.55936,4.46911 2.67401,6.61932 1.49868,2.78138 2.81904,5.63037 4.11461,8.49223 0.81156,1.7108 1.89726,3.30258 2.95258,4.89898 0.49962,0.78399 1.1484,1.40533 1.92101,1.97539 0,0 23.12406,-13.47509 23.12406,-13.47509 v 0 c -0.65132,0.0341 -0.82555,-0.44387 -1.19509,-0.86129 -1.01867,-1.47616 -2.10214,-2.92516 -2.94769,-4.48733 -1.39149,-2.8681 -2.65688,-5.78171 -4.02906,-8.65671 -1.16929,-2.17681 -1.47015,-4.65477 -2.88886,-6.74447 -1.25305,-1.99666 -2.9031,-3.61842 -4.60812,-5.31592 -3.45385,-4.12979 -6.80276,-8.33207 -10.18029,-12.51164 -4.74031,-5.38353 -9.24657,-10.96957 -14.99924,-15.54941 -6.78589,-6.17404 -13.31606,-12.58424 -19.76199,-19.04094 -9.55514,-9.29354 -19.16199,-18.63857 -27.12571,-29.09327 0,0 -23.45874,12.52899 -23.45874,12.52899 z" /><rect
   style="fill:#000000;fill-opacity:1;stroke-width:1.34516"
   id="rect39389-8"
   width="254.58754"
   height="0"
   x="359.43433"
   y="585.95886"
   transform="matrix(0.88040227,-0.47422763,0.36970104,0.92915076,0,0)" /><path
   style="fill:#0000ff;stroke:#000000;stroke-width:14.5726px;stroke-linecap:butt;stroke-linejoin:miter;stroke-opacity:1"
   d="M 271.1252,125.98887 234.79144,54.8249 c 0,0 -61.29702,-47.27715 -150.52922,-38.12112 l -67.76539,65.25116 121.41696,120.27839 -7.98297,230.23971 141.19438,-306.48417 0.59018,-5.18468"
   id="path1955"
   sodipodi:nodetypes="cccccccc" /><path
   style="fill:#5dff00;fill-opacity:1;stroke:#000000;stroke-width:10.0193px;stroke-linecap:butt;stroke-linejoin:miter;stroke-opacity:1"
   d="M 168.16623,48.63023 16.49684,81.95494 98.80481,162.89013 199.38219,145.54812 210.17999,66.4549 Z"
   id="path5701-3"
   sodipodi:nodetypes="cccccc" /><ellipse
   style="fill:#000000;stroke-width:4.35835"
   id="path288-3-6-0-7-5-3"
   cx="-136.17986"
   cy="139.75076"
   rx="9.5205612"
   ry="8.3351593"
   transform="scale(-1,1)" /><ellipse
   style="fill:#000000;stroke-width:4.35835"
   id="path288-3-6-0-7-5-6-1-6"
   cx="-68.708908"
   cy="104.10336"
   rx="9.5205612"
   ry="8.3351593"
   transform="scale(-1,1)" /><ellipse
   style="fill:#000000;stroke-width:4.35835"
   id="path288-3-6-0-7-5-6-1-6-3"
   cx="-105.15944"
   cy="122.02002"
   rx="9.5205612"
   ry="8.3351593"
   transform="scale(-1,1)" /><ellipse
   style="fill:#000000;stroke-width:4.35835"
   id="path288-3-6-0-7-5-6-1-6-3-5"
   cx="-148.25111"
   cy="91.510223"
   rx="9.5205498"
   ry="8.3351593"
   transform="scale(-1,1)" /><ellipse
   style="fill:#000000;stroke-width:4.35835"
   id="path288-3-6-0-7-5-6-1-6-3-5-6-2"
   cx="-186.82436"
   cy="69.330078"
   rx="9.5205498"
   ry="8.3351593"
   transform="scale(-1,1)" /><ellipse
   style="fill:#000000;stroke-width:4.35835"
   id="path288-3-6-0-7-5-3-7"
   cx="-181.80959"
   cy="114.19058"
   rx="9.5205612"
   ry="8.3351593"
   transform="scale(-1,1)" /><ellipse
   style="fill:#000000;stroke-width:4.35835"
   id="path288-3-6-0-7-5-6-1-6-5"
   cx="-114.33858"
   cy="78.543152"
   rx="9.5205612"
   ry="8.3351593"
   transform="scale(-1,1)" /><text
   xml:space="preserve"
   style="font-style:normal;font-weight:normal;font-size:94.1949px;line-height:1.25;font-family:sans-serif;fill:#000000;fill-opacity:1;stroke:none;stroke-width:2.35486"
   x="11.871573"
   y="308.0932"
   id="text6356"
   transform="scale(1.2331381,0.81093918)"><tspan
     sodipodi:role="line"
     id="tspan6354"
     x="11.871573"
     y="308.0932"
     style="font-style:normal;font-variant:normal;font-weight:bold;font-stretch:normal;font-family:sans-serif;-inkscape-font-specification:'sans-serif Bold';stroke-width:2.35486">G</tspan></text><g
   id="g14356"
   transform="matrix(1.1186646,0,0,1.1521491,-502.58493,-613.96049)"><ellipse
     style="fill:#000000;stroke-width:17.1747"
     id="path288-3-6-0"
     cx="507.07822"
     cy="804.89154"
     rx="36.31015"
     ry="33.936779" /><text
     xml:space="preserve"
     style="font-style:normal;font-weight:normal;font-size:56.7969px;line-height:1.25;font-family:sans-serif;fill:url(#linearGradient15240);fill-opacity:1;stroke:none;stroke-width:1.41992"
     x="392.95749"
     y="1005.183"
     id="text6356-2"
     transform="scale(1.2220091,0.81832452)"><tspan
       sodipodi:role="line"
       id="tspan6354-2"
       x="392.95749"
       y="1005.183"
       style="font-style:normal;font-variant:normal;font-weight:bold;font-stretch:normal;font-family:sans-serif;-inkscape-font-specification:'sans-serif Bold';fill:url(#linearGradient15240);fill-opacity:1;stroke-width:1.41992">C</tspan></text></g><text
   xml:space="preserve"
   style="font-style:normal;font-weight:normal;font-size:84.0676px;line-height:1.25;font-family:sans-serif;fill:#000000;fill-opacity:1;stroke:none;stroke-width:2.10169"
   x="16.976954"
   y="468.17813"
   id="text6356-5"
   transform="scale(1.0893701,0.91796167)"><tspan
     sodipodi:role="line"
     id="tspan6354-9"
     x="16.976954"
     y="468.17813"
     style="font-style:normal;font-variant:normal;font-weight:bold;font-stretch:normal;font-family:sans-serif;-inkscape-font-specification:'sans-serif Bold';stroke-width:2.10169">M</tspan></text><rect
   style="fill:#000000;fill-opacity:1;stroke-width:1.0717"
   id="rect39389"
   width="255.17891"
   height="5.1994166"
   x="-287.99265"
   y="73.245041"
   transform="matrix(-0.98764982,-0.15667749,-0.20283979,0.97921194,0,0)" /><rect
   style="fill:#000000;fill-opacity:1;stroke-width:1.29512"
   id="rect39389-8-9"
   width="158.12279"
   height="4.7424736"
   x="-248.73026"
   y="-263.7778"
   transform="matrix(-0.83902186,0.54409772,-0.23893314,-0.97103602,0,0)"
   ry="2.220933" /><rect
   style="fill:#000000;fill-opacity:1;stroke-width:1.3115"
   id="rect39389-8-9-7"
   width="269.2388"
   height="9.4001303"
   x="-560.73212"
   y="-594.62213"
   transform="matrix(-0.52667163,0.85006882,0.0406921,-0.99917173,0,0)"
   inkscape:transform-center-x="56.863302"
   inkscape:transform-center-y="235.66963" /></svg>
