<?xml version="1.0" encoding="UTF-8" standalone="no"?>
<!-- Created with Inkscape (http://www.inkscape.org/) -->

<svg
   width="161mm"
   height="140mm"
   viewBox="0 0 161 140"
   version="1.1"
   id="svg5"
   inkscape:version="1.1.2 (1:1.1+202202050950+0a00cf5339)"
   sodipodi:docname="orodoha.svg"
   xmlns:inkscape="http://www.inkscape.org/namespaces/inkscape"
   xmlns:sodipodi="http://sodipodi.sourceforge.net/DTD/sodipodi-0.dtd"
   xmlns="http://www.w3.org/2000/svg"
   xmlns:svg="http://www.w3.org/2000/svg">
  <sodipodi:namedview
     id="namedview7"
     pagecolor="#ffffff"
     bordercolor="#666666"
     borderopacity="1.0"
     inkscape:pageshadow="2"
     inkscape:pageopacity="0.0"
     inkscape:pagecheckerboard="0"
     inkscape:document-units="mm"
     showgrid="false"
     inkscape:zoom="0.50689534"
     inkscape:cx="396.53156"
     inkscape:cy="375.81722"
     inkscape:window-width="1332"
     inkscape:window-height="768"
     inkscape:window-x="71"
     inkscape:window-y="18"
     inkscape:window-maximized="0"
     inkscape:current-layer="layer1"
     showguides="false" />
  <defs
     id="defs2" />
  <g
     inkscape:label="Layer 1"
     inkscape:groupmode="layer"
     id="layer1">
    <text
       xml:space="preserve"
       style="font-style:normal;font-weight:normal;font-size:16.2873px;line-height:1.25;font-family:sans-serif;fill:#000000;fill-opacity:1;stroke:none;stroke-width:0.25449"
       x="4.7301764"
       y="16.577703"
       id="text2432"
       transform="scale(0.9099169,1.0990015)"><tspan
         sodipodi:role="line"
         id="tspan2430"
         style="font-style:normal;font-variant:normal;font-weight:normal;font-stretch:normal;font-size:16.2873px;font-family:Kalimati;-inkscape-font-specification:Kalimati;fill:#008000;stroke-width:0.25449"
         x="4.7301764"
         y="16.577703">Orodha ya ma orodha</tspan></text>
    <ellipse
       style="fill:#0000ff;stroke-width:0.264583"
       id="path13653"
       cx="47.805916"
       cy="40.151871"
       rx="21.146441"
       ry="17.442505" />
    <path
       sodipodi:type="spiral"
       style="fill:#ffff00;fill-rule:evenodd;stroke:#000000"
       id="path13629"
       sodipodi:cx="437.64182"
       sodipodi:cy="253.88089"
       sodipodi:expansion="1.05"
       sodipodi:revolution="4"
       sodipodi:radius="28.502275"
       sodipodi:argument="-18.27072"
       sodipodi:t0="0.029999999"
       transform="matrix(0.51883571,0,0,0.55418695,-179.80067,-99.661804)"
       d="m 437.81097,254.57822 c -0.43568,1.07585 -1.92951,0.51408 -2.4438,-0.14556 -1.18019,-1.51375 -0.18478,-3.63524 1.32588,-4.46299 2.4599,-1.34787 5.43679,0.15737 6.53085,2.55715 1.5471,3.39352 -0.50815,7.2866 -3.81676,8.63153 -4.33049,1.76032 -9.16765,-0.86458 -10.75735,-5.09623 -1.9811,-5.2735 1.22542,-11.07187 6.39105,-12.90362 6.22275,-2.20661 12.99461,1.58992 15.06719,7.69841 2.43542,7.17789 -1.95755,14.9328 -9.01638,17.24575 -8.13848,2.6667 -16.8843,-2.32791 -19.43756,-10.34356 -2.89996,-9.10406 2.70069,-18.84749 11.67887,-21.64125 10.07425,-3.13483 20.82112,3.07564 23.85571,13.02147 3.37108,11.0487 -3.45257,22.80423 -14.37069,26.08004 -12.02709,3.60854 -24.79596,-3.83131 -28.31344,-15.72596 -3.84707,-13.00916 4.2117,-26.79566 17.0868,-30.55529 13.99468,-4.08656 28.80274,4.59363 32.80501,18.45282 2.13393,7.38943 1.03484,15.4821 -2.89529,22.08214" />
    <path
       style="fill:#0000ff;stroke-width:0.264583"
       id="path14162"
       d="m 49.550556,59.862686 c -1.963315,3.66952 -3.296378,7.638632 -4.991754,11.437363 -1.272617,2.788757 -2.565995,5.571317 -4.687125,7.815997 -0.587336,0.70274 -1.551906,0.96031 -2.16503,1.62497 -0.270542,0.29329 -0.46545,0.64825 -0.701675,0.96982 -0.563806,0.94167 -1.427657,1.64343 -2.096373,2.49922 0,0 3.61638,-1.54095 3.61638,-1.54095 v 0 c 0.694177,-0.8125 1.427327,-1.59501 2.02787,-2.48318 0.223795,-0.28135 0.48959,-0.64643 0.765672,-0.89365 0.65296,-0.58467 1.496693,-0.94844 2.055821,-1.64778 1.973069,-2.28356 3.14589,-5.04588 4.34427,-7.792016 1.71789,-3.917178 3.087442,-8.040124 5.432576,-11.641887 0,0 -3.600632,1.652093 -3.600632,1.652093 z" />
    <path
       style="fill:#0000ff;stroke-width:0.264583"
       id="path14197"
       d="m 50.734616,62.830099 c -0.255272,1.142892 -0.513307,2.28473 -0.721601,3.437208 -0.194746,1.891543 -0.556103,3.709947 -1.271352,5.471345 -0.832995,2.206584 -1.28666,4.528764 -1.575136,6.862264 -0.234529,1.89067 -0.35102,3.27435 0.446612,5.05067 1.221608,1.77034 3.467573,2.48185 5.355365,3.34974 1.450623,0.68256 2.955308,1.23067 4.476438,1.73064 0.723571,0.2223 0.381513,0.11615 1.026353,0.31784 0,0 3.218542,-2.20124 3.218542,-2.20124 v 0 c -0.66947,-0.18296 -0.316775,-0.0873 -1.058201,-0.28655 -1.537734,-0.46319 -3.037017,-1.0321 -4.519742,-1.64941 -1.825561,-0.78435 -3.94616,-1.49285 -5.158322,-3.14697 -0.75642,-1.63598 -0.554064,-3.09708 -0.392946,-4.84324 0.270299,-2.31387 0.709499,-4.61833 1.624724,-6.773959 0.728586,-1.787988 0.962361,-3.655975 1.276483,-5.552675 0.258535,-1.159547 0.506873,-2.323383 0.824955,-3.468124 0,0 -3.552172,1.702461 -3.552172,1.702461 z" />
    <path
       style="fill:#ff6600;stroke-width:0.264583"
       id="path14199"
       d="m 33.090237,95.867866 c -1.764163,0.0502 -3.529031,0.0778 -5.29312,0.0197 -3.449235,-0.38742 -5.598636,-1.73354 -8.288062,-3.82977 -1.832941,-1.69134 -3.89115,-3.34327 -5.050369,-5.60226 -0.09671,-0.27385 -0.301051,-0.69234 -0.231421,-1.01585 0.02447,-0.11375 0.127424,-0.19473 0.191135,-0.29209 -0.948137,0.60164 -1.957533,1.11618 -2.844413,1.80493 -0.18999,0.14755 0.467407,-0.12292 0.706948,-0.14497 0.296426,-0.0273 0.595355,-0.002 0.893032,-0.002 3.379486,0.47388 6.718501,1.2795 10.042766,2.05204 3.756033,1.07833 7.346968,2.63376 11.057249,3.85194 5.448067,1.72025 11.050585,2.82325 16.722109,3.44945 6.679485,0.58947 13.398137,0.21288 20.089296,0.0318 1.856616,-0.0463 3.713136,-0.0988 5.570109,-0.12928 0.260278,-0.004 0.520567,-0.01 0.780883,-0.01 0.08475,1e-4 0.185587,0.0607 0.254021,0.0107 1.038043,-0.75832 2.012013,-1.60066 3.018013,-2.401 -1.75348,-0.69607 -3.299532,-1.79618 -4.854454,-2.84393 -1.17594,-0.87497 -2.543683,-0.90994 -3.952324,-0.88867 -0.412057,0.0272 -0.825209,0.0411 -1.236171,0.0817 -5.207087,0.51343 1.62328,-0.0295 -5.287198,0.5595 -3.668183,0.31266 -7.343552,0.48075 -11.020649,0.64186 -6.118376,0.22963 -12.242149,0.22857 -18.363152,0.1344 -2.850211,0.0377 -5.683459,-0.20484 -8.509564,-0.54225 -3.974232,-0.49366 -3.15432,-0.24226 -7.607363,2.29143 -1.217282,1.02371 -2.539172,2.09412 -3.341116,3.49334 -0.568349,1.58098 -0.296826,2.48999 0.980569,3.563444 2.110182,1.10293 4.443527,1.67776 6.736948,2.26359 4.386125,1.27292 8.735176,1.53438 13.272384,1.71229 5.547291,0.19401 11.096296,0.32848 16.64639,0.40395 3.14983,0.0986 6.293011,-10e-4 9.436764,-0.18798 2.43719,0.0572 4.071162,-0.7424 6.191776,-1.81408 2.792854,-1.43366 5.645907,-2.774424 8.23846,-4.568844 0.23831,-0.16494 0.33271,-0.47465 0.49907,-0.71199 0.60462,-1.01543 1.09875,-2.10552 1.2965,-3.27549 0.0107,-0.10825 0.0214,-0.21651 0.0321,-0.32476 0,0 -3.525509,1.74759 -3.525509,1.74759 v 0 c -0.01228,0.0993 -0.02458,0.19857 -0.03686,0.29785 -0.208526,1.09799 -0.645168,2.13644 -1.282184,3.05721 -1.261555,1.382734 -0.734563,0.67426 2.08848,-0.85944 0.284163,-0.15438 -0.554114,0.3339 -0.837345,0.48998 -1.172289,0.64601 -2.393003,1.19895 -3.57428,1.827704 -1.968458,0.99117 -3.838215,1.97631 -6.112274,1.94034 -3.167124,0.23228 -6.335747,0.29709 -9.511311,0.27416 -5.624888,0.0316 -11.252774,0.0354 -16.873275,-0.22003 -4.35215,-0.27588 -8.697124,-0.6382 -12.89949,-1.88641 -2.215103,-0.599074 -4.467826,-1.165604 -6.525633,-2.207554 -1.162691,-0.93339 -1.327185,-1.73626 -0.688182,-3.09093 0.869209,-1.30243 2.072127,-2.38837 3.341555,-3.28917 -6.931009,3.88931 -2.290415,1.19454 -1.836195,1.09884 0.666417,-0.1404 2.075416,0.22932 2.786648,0.18051 2.922293,0.26541 5.847347,0.52014 8.786172,0.38865 6.196552,-0.0418 12.397528,0.0261 18.588664,-0.27916 5.694614,-0.2449 11.387,-0.5441 17.072083,-0.95177 1.325288,-0.0117 2.645789,-0.0295 3.793675,0.72738 1.577242,0.96479 3.103719,2.04183 4.754177,2.86906 1.159004,-0.68287 2.338314,-1.33241 3.477024,-2.04861 0.0956,-0.0601 -0.21934,0.0564 -0.33143,0.0702 -0.28794,0.0352 -0.57763,0.0547 -0.8669,0.0765 -1.946833,0.14669 -3.897931,0.22929 -5.847132,0.33567 -6.665164,0.30042 -13.358585,0.63919 -20.014073,-0.0249 -5.633059,-0.61746 -11.237066,-1.54741 -16.601577,-3.4407 -3.685522,-1.29762 -7.278421,-2.86754 -11.055618,-3.89457 -3.283233,-0.78101 -6.5621,-1.60861 -9.870413,-2.26481 -0.01508,-7.9e-4 -1.562968,-0.11076 -1.659059,-0.0621 -2.822012,1.42947 -4.504132,1.48074 -3.486909,3.85914 1.272733,2.2709 3.501001,3.83396 5.357746,5.59208 1.411417,1.15992 2.834894,2.36107 4.52175,3.11542 1.179822,0.52761 2.500281,0.71092 3.745196,1.00995 1.712767,0.0776 3.427253,0.0509 5.140785,0.10918 0,0 3.204512,-2.32822 3.204512,-2.32822 z" />
    <path
       style="fill:#0000ff;stroke-width:0.264583"
       id="path14201"
       d="m 56.401811,63.788648 c 3.646056,-0.07432 7.250674,0.586639 10.864361,0.965348 9.244171,0.644559 18.519571,0.218786 27.775601,0.09023 4.8688,-0.06236 9.737907,-0.10772 14.607137,-0.110609 1.07807,0.0024 2.15603,0.01921 3.23401,0.03158 0.50142,7.94e-4 0.71436,-0.109585 0.90451,0.392483 0.82742,3.028508 1.25475,6.162111 1.90556,9.237406 0.50529,2.60174 1.31034,5.12096 2.14376,7.63122 0.42199,1.26522 0.91447,2.50494 1.31873,3.77616 0,0 3.43459,-1.89763 3.43459,-1.89763 v 0 c -0.46963,-1.23837 -1.01692,-2.44439 -1.4739,-3.68761 -0.86717,-2.47623 -1.57947,-4.99891 -2.21585,-7.54409 -0.40044,-1.782054 -0.78171,-3.565576 -1.06128,-5.371596 -0.16716,-1.079891 -0.25824,-2.17108 -0.4405,-3.248525 -0.0453,-0.267753 -0.12201,-0.52923 -0.18301,-0.793845 -0.26771,-0.773501 -0.37226,-0.852591 -1.14544,-0.809183 -1.13596,0.01074 -2.27121,0.04996 -3.40661,0.08606 -5.06314,0.155234 -10.12382,0.380646 -15.187097,0.531527 -9.11596,0.254077 -18.27442,0.602459 -27.364258,-0.332123 -3.502326,-0.43597 -6.991149,-0.983105 -10.510763,-1.271416 0,0 -3.199551,2.324611 -3.199551,2.324611 z" />
    <path
       style="fill:#0000ff;stroke-width:0.264583"
       id="path14203"
       d="m 62.780704,69.65695 c 4.750032,-0.04634 9.498184,0.238924 14.244621,0.399531 8.315148,0.130276 16.572208,1.089345 24.838105,1.898349 5.51017,0.537026 11.05066,0.617076 16.58173,0.732076 2.33958,0.0478 4.67912,0.099 7.01906,0.12559 0.61082,0.006 0.32565,-5.3e-4 0.85557,0.0162 0,0 3.17752,-2.297127 3.17752,-2.297127 v 0 c -0.56285,-0.0092 -0.26241,-0.0089 -0.90132,0.0034 -2.43603,0.04795 -4.87225,0.09335 -7.30887,0.09237 -5.58062,-0.02029 -11.16307,-0.144663 -16.72787,-0.595045 -8.309437,-0.658799 -16.606537,-1.50337 -24.938127,-1.844275 -4.553281,-0.250947 -9.101262,-0.581901 -13.654175,-0.830099 0,0 -3.186244,2.29901 -3.186244,2.29901 z" />
    <path
       style="fill:#0000ff;stroke-width:0.264583"
       id="path14205"
       d="m 76.035487,76.550686 c 4.383016,0.38692 8.770666,0.7245 13.162316,0.99873 5.98992,0.32475 11.990597,0.47249 17.986467,0.2695 4.35567,-0.20997 8.71194,-0.43151 13.06172,-0.74342 1.26721,-0.097 2.53485,-0.18795 3.80531,-0.22697 0.46912,-0.012 0.24002,-0.008 0.68729,-0.0124 0,0 3.17785,-2.31419 3.17785,-2.31419 v 0 c -0.45658,0.006 -0.22319,0.002 -0.70017,0.01 -1.32897,0.0537 -2.65314,0.18568 -3.97517,0.32791 -4.43289,0.4465 -8.87849,0.77202 -13.32991,0.96364 -5.98255,0.20954 -11.970327,0.0968 -17.946317,-0.25705 -4.26226,-0.28657 -8.53304,-0.59905 -12.75511,-1.2694 0,0 -3.174276,2.25382 -3.174276,2.25382 z" />
    <path
       style="fill:#0000ff;stroke-width:0.264583"
       id="path14207"
       d="m 112.15429,84.698176 c 2.63465,-0.16079 5.24467,-0.0557 7.85324,0.32472 1.44317,0.22222 2.87159,0.52821 4.31866,0.72498 0,0 3.19162,-2.26503 3.19162,-2.26503 v 0 c -1.49658,-0.13197 -2.97678,-0.3951 -4.46314,-0.60783 -2.57255,-0.36677 -5.14328,-0.48033 -7.74172,-0.47173 0,0 -3.15866,2.29489 -3.15866,2.29489 z" />
    <path
       style="fill:#0000ff;stroke-width:0.264583"
       id="path14209"
       d="m 110.45406,86.165726 c 1.6961,0.70153 3.48322,1.15481 5.2329,1.70205 1.39153,0.48222 2.83586,0.7904 4.28864,1.01815 1.24376,0.21585 2.4734,0.0757 3.69379,-0.19488 1.03227,-0.29169 2.09622,-0.44098 3.13861,-0.6862 2.39729,-1.14477 3.83476,-1.14059 3.91271,-3.25512 -0.16788,-0.95404 -1.48257,-0.8991 -2.23416,-0.96843 0,0 -3.16177,2.25788 -3.16177,2.25788 v 0 c 0.37582,0.0268 1.84602,-0.0196 1.86274,0.47963 -0.17156,1.58746 -3.16083,2.32725 2.73727,-0.91168 -1.04337,0.34087 -2.14929,0.42634 -3.19787,0.75345 -1.18725,0.2918 -2.34899,0.47096 -3.57235,0.28016 -1.47175,-0.16678 -2.92653,-0.45083 -4.33783,-0.90802 -1.71185,-0.51094 -3.47556,-0.95454 -5.08205,-1.74474 0,0 -3.28063,2.17775 -3.28063,2.17775 z" />
    <path
       style="fill:#0000ff;stroke-width:0.264583"
       id="path14211"
       d="m 33.845918,80.803656 c -1.30616,0.23634 -2.624309,0.37754 -3.884998,0.80939 -1.587524,0.79017 -3.876982,1.36566 -4.451779,3.19175 -0.09284,0.504 -0.02812,0.92672 0.273047,1.34267 0.491014,0.49533 1.181209,0.5759 1.831428,0.71526 0.469699,0.12434 0.247703,0.0539 0.667557,0.20633 0,0 3.262069,-2.19097 3.262069,-2.19097 v 0 c -0.453988,-0.18504 -0.216636,-0.10146 -0.713447,-0.24676 -0.554492,-0.12645 -1.168013,-0.17934 -1.647497,-0.50374 -0.235169,-0.28952 -0.208989,-0.64918 -0.0736,-0.98618 0.08791,-0.16805 0.184684,-0.31915 0.316108,-0.45825 0.0637,-0.0674 0.282694,-0.23624 0.200951,-0.19243 -1.794549,0.96185 -4.26363,2.44348 -2.72896,1.52519 1.209789,-0.51631 2.493314,-0.71407 3.797382,-0.83789 0,0 3.151735,-2.37437 3.151735,-2.37437 z" />
    <path
       style="fill:#a05a2c;stroke-width:0.264583"
       id="path14213"
       d="m 14.403343,99.019796 c 0.178887,2.834334 0.139959,5.677944 0.08536,8.515864 0.131762,1.0267 -0.375854,2.95334 0.238879,3.85791 0.731454,1.07631 1.770994,1.11882 2.953226,1.50688 0.893694,0.1692 1.780191,0.38225 2.681084,0.50761 2.829697,0.39374 5.98955,0.54175 8.808622,0.68507 6.085874,0.3094 12.174384,0.4284 18.266129,0.55097 5.019524,0.10297 10.038368,0.23051 15.058493,0.30135 2.02143,0.0285 4.055274,0.10761 6.075331,-0.006 1.200766,-0.72763 2.537878,-1.2673 3.602305,-2.18288 0.183401,-0.15776 -0.445284,-0.78863 -0.992323,-1.24459 -1.171755,-0.97665 -2.45137,-1.8361 -3.65584,-2.77233 -2.093074,-1.46184 -3.950605,-3.4483 -6.371167,-4.36679 -1.857097,-0.43558 -3.787214,-0.18768 -5.654931,0.0589 -2.257653,0.39351 -4.52315,0.73489 -6.802028,0.97784 -1.003948,0.10859 -2.014077,0.0992 -3.02202,0.0992 0,0 -3.047672,2.20964 -3.047672,2.20964 v 0 c 1.006504,0.02 2.018427,0.0747 3.021536,-0.0425 2.276166,-0.25988 4.542565,-0.60384 6.803755,-0.96957 1.831044,-0.23756 3.702312,-0.53772 5.538883,-0.19372 2.45863,0.77312 4.404439,2.68208 6.457466,4.15874 1.149897,0.95139 2.376222,1.83054 3.472034,2.8449 0.187047,0.17315 0.368364,0.35356 0.534096,0.5472 0.04941,0.0577 0.03707,0.23201 0.106645,0.20147 1.044081,-0.45836 2.022618,-1.05347 3.033927,-1.58021 -2.160365,0.3927 -4.371072,0.37256 -6.562021,0.41689 -5.145447,0.10411 -10.291799,0.0596 -15.437299,-0.0189 -5.189347,-0.13046 -7.359515,-0.15445 -12.496962,-0.40157 -4.637741,-0.22308 -9.323048,-0.46366 -13.909029,-1.24286 -0.854562,-0.1452 -1.694688,-0.36533 -2.542032,-0.54799 -0.833927,-0.29653 -2.004832,-0.46738 -2.562934,-1.31503 -0.509871,-0.7744 -0.117382,-2.82574 -0.264438,-3.7373 -0.05626,-2.86704 -0.0891,-5.73915 0.08536,-8.602844 0,0 -3.502432,1.78458 -3.502432,1.78458 z" />
    <path
       style="fill:#808000;stroke-width:0.264583"
       id="path14215"
       d="m 14.079734,120.16437 c 0.168722,2.44649 0.06227,4.89668 -0.07762,7.34104 -0.0266,1.04325 -0.484883,2.61876 0.668822,3.26639 0.230685,0.12949 0.496287,0.18341 0.744429,0.27511 3.303886,0.50618 6.601468,1.06486 9.921255,1.46637 5.561169,0.4808 11.106124,1.09567 16.639569,1.82858 5.062689,0.59782 10.153169,0.94339 15.240341,1.26002 2.722595,0.12929 5.459169,0.15864 8.178464,-0.0466 3.178382,-0.4578 5.784035,-2.24483 8.505492,-3.83368 0.112667,-0.0959 0.259339,-0.16242 0.338008,-0.28774 0.479999,-0.76463 0.370197,-3.41653 0.391578,-4.37003 -2.65e-4,-2.03685 -0.01606,-4.07419 -0.03813,-6.11106 -0.01852,-1.5505 -1.008245,-2.72484 -1.78734,-3.98948 -0.654489,-0.81306 -0.858123,-1.9054 -1.415947,-2.76619 -0.307713,-0.47484 -0.480102,-0.52805 -0.935307,-0.8438 0,0 -3.261868,2.09486 -3.261868,2.09486 v 0 c 1.287179,0.76533 1.479632,2.22417 2.329453,3.42116 0.720063,1.1971 1.569005,2.39512 1.676802,3.82399 0.08405,2.02833 0.04799,4.05813 0.04496,6.08765 -0.02262,1.19016 0.07957,2.59466 -0.369482,3.72471 -0.136539,0.3436 -0.319458,0.42244 -0.59304,0.62226 6.469279,-3.67336 7.94e-4,0.15037 -1.874401,0.19806 -2.731042,0.28807 -5.470258,0.19041 -8.21164,0.13209 -5.16904,-0.12846 -10.338885,-0.39884 -15.470722,-1.0582 -5.494993,-0.70695 -10.984206,-1.44934 -16.505949,-1.92445 -3.223217,-0.43073 -6.41342,-1.036 -9.616985,-1.58929 -0.211566,-0.0619 -0.432749,-0.0972 -0.634701,-0.18553 -1.045599,-0.4573 -0.538403,-2.05197 -0.590441,-2.89497 0.0795,-2.4708 0.08259,-4.94284 0.180567,-7.41246 0,0 -3.476164,1.7712 -3.476164,1.7712 z" />
    <path
       style="fill:#008000;stroke-width:0.264583"
       id="path14217"
       d="m 114.74899,91.679116 c 0.0329,1.01338 0.0451,2.02707 0.0424,3.04093 -0.15044,1.37693 0.95718,2.05762 1.97882,2.72413 1.12761,0.67269 2.43185,0.78288 3.71046,0.89095 0.95843,0.12024 1.90428,-0.011 2.83973,-0.21731 2.49115,-1.2377 4.07499,-2.01642 5.45846,-4.17886 0.26847,-0.62192 0.78085,-1.1908 0.86283,-1.87245 -0.21048,-0.81886 -0.99695,-1.16924 -1.74201,-1.38595 -0.85705,-0.15472 -1.72229,-0.19377 -2.57824,-0.36348 -1.11769,-0.20136 -2.25102,-0.29414 -3.37721,-0.43619 -0.81871,-0.10734 -1.63813,-0.20458 -2.46307,-0.2447 -0.52149,-0.0328 -1.0388,-0.10479 -1.56006,-0.14222 0,0 -3.19413,2.28824 -3.19413,2.28824 v 0 c 0.52304,0.0323 1.04342,0.0867 1.56308,0.15463 0.83565,0.0206 1.66929,0.0816 2.49972,0.17839 1.10639,0.1282 2.21516,0.25288 3.31181,0.44876 0.85565,0.16053 1.70877,0.2549 2.57447,0.3375 0.49772,0.10817 1.31458,0.29187 1.41555,0.88156 -0.21113,0.60594 -0.59352,1.15666 -0.89087,1.72204 -1.11744,1.61508 -4.38403,3.66045 1.2255,0.2314 -0.90322,0.27876 -1.84867,0.41418 -2.79336,0.34131 -1.23166,-0.0653 -2.49315,-0.13844 -3.60398,-0.7303 -1.00077,-0.61794 -1.88704,-1.07273 -1.79361,-2.3822 -0.003,-1.02827 0.0101,-2.05637 0.0425,-3.08418 0,0 -3.52878,1.798 -3.52878,1.798 z" />
    <path
       style="fill:#008000;stroke-width:0.298559"
       id="path14219"
       d="m 110.14021,99.264606 c 0.0384,0.786684 0.0278,1.574094 0.0139,2.361064 -0.005,0.57725 -0.008,1.15452 -0.009,1.73179 0.005,0.55531 -0.001,1.11061 10e-4,1.66593 0.263,0.82151 1.05889,1.32084 1.98593,1.67792 1.04359,0.29701 2.14153,0.44067 3.23214,0.58454 1.14298,0.1284 2.29888,0.1676 3.45136,0.20603 0.8636,0.0325 1.72816,0.0392 2.5926,0.0406 0.88997,-0.0114 1.78072,0.009 2.67029,-0.0174 2.0963,-0.0878 4.48581,-0.94898 5.44486,-2.44604 0.158,-0.33083 0.15151,-0.66533 0.30569,-0.99839 0.18013,-0.49875 0.16994,-1.0309 0.20169,-1.54618 0.0201,-0.45694 0.0295,-0.91396 0.0232,-1.37112 -10e-4,-0.42625 0.0358,-0.84878 -0.0649,-1.268654 -0.28408,-0.72554 -0.97675,-1.0116 -1.84275,-1.22182 -0.94453,-0.21731 -1.90851,-0.35516 -2.88787,-0.41994 -0.79421,-0.0169 -1.57948,-0.0701 -2.36477,-0.16262 -0.83385,-0.0858 -1.66944,-0.16633 -2.50668,-0.23006 -0.98466,-0.10453 -1.98136,-0.10699 -2.96318,-0.22558 -0.9344,-0.16865 -1.80189,-0.50029 -2.70098,-0.75442 0,0 -4.14557,2.2095 -4.14557,2.2095 v 0 c 0.93809,0.22424 1.8267,0.54562 2.75037,0.80204 0.99161,0.138754 1.9985,0.138414 2.99645,0.241364 0.82697,0.059 1.64643,0.16149 2.47297,0.2237 0.79665,0.0899 1.58588,0.20814 2.39564,0.18239 0.95872,0.0406 1.91067,0.13526 2.83762,0.34051 0.66117,0.1522 1.3249,0.26002 1.51237,0.85304 0.0363,0.4076 0.0167,0.81675 0.0266,1.22521 -0.006,0.45005 10e-4,0.90027 -0.0222,1.35007 -0.0281,0.49457 -0.0607,0.99409 -0.27984,1.4637 -0.10377,0.30722 -0.10479,0.64256 -0.37239,0.89931 -1.71242,1.51527 6.29956,-2.45184 3.22673,-1.47949 -0.88599,0.0502 -1.7714,0.05 -2.65954,0.0385 -0.87112,-5.3e-4 -1.74232,0.001 -2.61332,-0.0126 -1.13735,-0.0248 -2.2742,-0.0666 -3.40416,-0.17689 -1.06416,-0.11365 -2.12303,-0.26264 -3.15524,-0.49965 -0.77429,-0.23662 -1.52465,-0.60259 -1.67079,-1.29729 0.003,-0.55573 -0.004,-1.11144 10e-4,-1.66716 -10e-4,-0.57491 -0.004,-1.14983 -0.009,-1.724724 -0.0141,-0.79067 -0.0239,-1.58177 0.0139,-2.37216 0,0 -4.48535,1.79483 -4.48535,1.79483 z" />
  </g>
</svg>
